<?xml version="1.0" standalone="no"?>
<!DOCTYPE svg PUBLIC "-//W3C//DTD SVG 20010904//EN" "http://www.w3.org/TR/2001/REC-SVG-20010904/DTD/svg10.dtd">
<svg version="1.0" xmlns="http://www.w3.org/2000/svg" viewBox="0 0 2057 1381" preserveAspectRatio="xMidYMid meet">
  
  <defs>
    <linearGradient id="brand-gradient" x1="0%" y1="0%" x2="100%" y2="0%">
      <stop offset="0%" style="stop-color:#4f8df7;stop-opacity:1" />
      <stop offset="100%" style="stop-color:#8b5cf6;stop-opacity:1" />
    </linearGradient>
  </defs>

  <g transform="translate(0,1381) scale(0.1,-0.1)" fill="url(#brand-gradient)" stroke="none">
    <path d="M7575 13793 c-487 -42 -961 -152 -1395 -324 -183 -72 -515 -239 -683
-343 -718 -443 -1287 -1067 -1667 -1826 -201 -402 -308 -703 -469 -1327 -79
-305 -101 -370 -139 -415 -34 -40 -54 -48 -299 -114 -256 -68 -418 -121 -588
-189 -512 -207 -936 -486 -1316 -865 -461 -460 -763 -984 -913 -1585 -226
-906 -76 -1862 418 -2655 296 -476 709 -884 1181 -1167 391 -235 844 -401
1301 -477 228 -38 319 -46 683 -56 437 -12 547 -31 731 -126 164 -84 285 -198
591 -554 420 -489 724 -768 1134 -1045 698 -470 1382 -699 2150 -722 594 -17
1209 114 1741 372 326 157 510 274 884 560 281 215 399 289 537 335 154 52
228 52 618 -4 451 -64 523 -70 760 -70 561 0 1126 141 1577 395 272 152 443
286 748 584 232 227 298 279 440 343 99 45 222 81 355 104 112 19 140 20 425
12 548 -16 729 -7 1068 52 940 161 1819 715 2399 1512 321 441 554 975 652
1497 41 215 52 331 58 585 5 258 -2 400 -33 610 -88 607 -320 1142 -697 1610
-114 142 -389 416 -518 516 -384 300 -707 475 -1159 627 -74 26 -279 89 -454
142 -176 52 -357 113 -402 134 -185 87 -318 205 -461 409 -49 68 -126 179
-173 245 -251 355 -633 748 -976 1003 -729 542 -1572 813 -2459 791 -395 -10
-681 -60 -1198 -211 -171 -50 -220 -55 -294 -30 -73 25 -136 71 -299 220 -352
322 -667 563 -979 751 -658 396 -1377 632 -2108 692 -116 10 -674 13 -772 4z
m5727 -5776 c74 -36 151 -120 174 -189 22 -66 22 -181 -1 -266 -48 -189 -135
-283 -230 -252 -58 19 -65 39 -64 186 1 145 -12 212 -47 245 -56 52 -150 -12
-214 -147 -72 -149 -143 -413 -156 -576 l-7 -88 250 0 c272 0 305 -5 328 -51
21 -39 19 -71 -7 -109 -47 -68 -192 -113 -420 -129 -204 -15 -182 5 -207 -179
-52 -387 -73 -777 -52 -947 10 -75 -4 -106 -65 -145 -122 -77 -266 -36 -308
87 -30 88 -22 210 49 718 14 99 28 236 31 305 l6 125 -42 28 c-52 37 -74 70
-72 113 2 40 48 112 92 144 67 47 78 75 120 286 82 415 158 597 308 736 110
101 213 138 372 135 92 -2 112 -6 162 -30z m-2416 -658 c256 -26 465 -106 597
-229 83 -78 166 -191 197 -270 27 -68 38 -174 20 -195 -11 -13 -54 -15 -290
-15 l-278 0 -6 38 c-12 65 -57 172 -100 235 -64 96 -153 142 -300 156 -343 33
-540 -169 -539 -554 0 -153 15 -230 63 -331 65 -134 161 -208 311 -240 136
-29 291 2 396 80 87 64 151 174 168 289 l7 47 295 0 295 0 -7 -42 c-13 -77
-61 -205 -104 -278 -143 -241 -408 -372 -807 -400 -428 -29 -833 89 -1013 297
-62 71 -117 192 -142 308 -25 123 -28 334 -6 441 62 294 257 511 542 603 198
64 448 85 701 60z m-7256 -229 l0 -180 -545 0 -545 0 0 -110 0 -110 465 0 465
0 0 -175 0 -175 -465 0 -465 0 0 -350 0 -350 -255 0 -255 0 0 815 0 815 800 0
800 0 0 -180z m1590 -627 c194 -445 355 -811 357 -815 2 -5 -108 -8 -245 -8
l-249 0 -69 158 -69 157 -325 0 -324 0 -65 -157 -66 -158 -251 0 -252 0 357
815 356 815 246 0 246 0 353 -807z m1272 429 c163 -207 354 -449 423 -536
l125 -159 0 537 0 536 250 0 250 0 0 -815 0 -815 -274 0 -273 0 -394 506 -394
506 -3 -506 -2 -506 -245 0 -245 0 0 815 0 815 243 0 242 -1 297 -377z m1698
-155 c0 -596 1 -604 66 -671 75 -77 202 -119 359 -119 158 0 271 39 350 120
65 67 65 68 65 665 l0 538 256 0 255 0 -3 -577 c-4 -520 -6 -583 -22 -632 -33
-102 -101 -187 -211 -266 -179 -128 -412 -190 -710 -188 -427 3 -754 150 -868
390 l-32 68 -3 603 -3 602 251 0 250 0 0 -533z m8505 294 c145 -66 240 -326
169 -463 -31 -59 -105 -83 -164 -53 -38 19 -58 58 -76 147 -8 39 -19 79 -24
89 -14 26 -45 32 -78 15 -94 -49 -277 -351 -333 -551 -29 -104 -32 -229 -6
-269 66 -100 295 -83 491 38 127 77 167 96 206 96 88 0 86 -97 -3 -188 -51
-53 -152 -129 -228 -171 -182 -102 -425 -126 -573 -57 -225 104 -265 440 -96
792 103 214 297 456 424 530 109 63 216 79 291 45z m1301 -2 c105 -39 184
-153 184 -264 0 -140 -57 -253 -194 -390 -134 -132 -266 -207 -467 -264 -41
-11 -80 -28 -86 -38 -29 -38 23 -130 92 -163 40 -20 58 -22 124 -17 136 9 254
69 402 204 97 89 119 100 162 84 52 -20 58 -90 15 -176 -27 -53 -199 -221
-271 -264 -253 -150 -542 -147 -696 7 -99 99 -136 218 -128 407 7 146 32 246
91 369 180 376 521 599 772 505z m-3841 -59 c77 -30 179 -129 224 -218 51
-101 64 -170 58 -302 -6 -132 -6 -132 -41 -225 -117 -309 -413 -563 -689 -591
-162 -16 -313 63 -396 207 -141 247 -25 692 254 974 142 143 243 187 425 182
82 -2 118 -8 165 -27z m1594 4 c125 -37 202 -180 157 -289 -35 -82 -116 -86
-217 -11 -35 25 -72 46 -82 46 -33 0 -83 -38 -164 -125 -220 -235 -333 -462
-388 -779 -9 -49 -23 -102 -33 -118 -28 -47 -78 -72 -145 -73 -55 0 -61 2 -92
36 -25 28 -37 55 -52 115 -26 112 -23 488 6 779 27 266 35 310 66 350 69 91
226 100 270 15 23 -44 19 -90 -21 -239 -33 -123 -78 -351 -71 -358 2 -1 25 39
53 89 63 118 157 259 233 351 158 190 316 260 480 211z m-15059 -3018 c0 -4
15 -25 33 -46 17 -20 60 -73 94 -117 34 -44 160 -180 280 -304 120 -123 200
-211 178 -194 -63 46 -360 341 -439 435 -76 91 -156 206 -156 226 0 7 -7 14
-15 18 -8 3 -15 10 -15 16 0 5 9 2 20 -7 11 -10 20 -22 20 -27z m695 -737 c16
-19 13 -18 -17 5 -21 16 -38 30 -38 33 0 8 36 -16 55 -38z m720 -437 c-3 -3
-11 0 -18 7 -9 10 -8 11 6 5 10 -3 15 -9 12 -12z m110 -50 c-3 -3 -11 0 -18 7
-9 10 -8 11 6 5 10 -3 15 -9 12 -12z m2790 -907 c55 -65 146 -170 203 -234
183 -204 496 -514 507 -503 3 3 5 0 5 -6 0 -17 -8 -15 -43 10 -52 36 -434 416
-510 508 -39 47 -91 108 -116 136 -25 29 -68 78 -94 110 -26 33 -74 91 -107
129 -33 39 -60 75 -60 80 0 14 97 -89 215 -230z m817 -837 c10 -10 14 -18 10
-18 -5 0 -17 9 -27 20 -10 11 -26 22 -36 25 -11 4 -17 11 -13 16 6 10 21 0 66
-43z m82 -63 c17 -25 16 -25 -4 -13 -11 7 -20 18 -20 25 0 19 6 16 24 -12z
m1117 -663 c-7 -2 -18 1 -23 6 -8 8 -4 9 13 5 13 -4 18 -8 10 -11z m56 -18
c-3 -3 -12 -4 -19 -1 -8 3 -5 6 6 6 11 1 17 -2 13 -5z"/>
<path d="M4618 6774 c-5 -7 -145 -339 -195 -461 -4 -10 39 -13 196 -13 111 0
201 4 201 9 0 4 -41 104 -90 222 -50 118 -94 223 -98 233 -5 11 -11 16 -14 10z"/>
<path d="M17763 6819 c-76 -37 -193 -172 -255 -293 -26 -51 -58 -137 -58 -158
0 -3 23 0 50 7 169 45 354 183 410 308 25 54 25 84 0 125 -17 28 -25 32 -62
32 -24 0 -62 -9 -85 -21z"/>
<path d="M13882 6775 c-88 -27 -179 -132 -257 -296 -100 -211 -100 -469 0
-535 34 -22 126 -15 185 14 66 32 164 116 216 186 89 118 124 217 125 351 1
143 -38 231 -121 273 -50 25 -86 27 -148 7z"/>
  </g>
</svg>