<?xml version="1.0" standalone="no"?>
<!DOCTYPE svg PUBLIC "-//W3C//DTD SVG 20010904//EN" "http://www.w3.org/TR/2001/REC-SVG-20010904/DTD/svg10.dtd">
<svg version="1.0" xmlns="http://www.w3.org/2000/svg" viewBox="0 0 2302 2302" preserveAspectRatio="xMidYMid meet">
  
  <defs>
    <linearGradient id="brand-gradient" x1="0%" y1="0%" x2="100%" y2="0%">
      <stop offset="0%" style="stop-color:#4f8df7;stop-opacity:1" />
      <stop offset="100%" style="stop-color:#8b5cf6;stop-opacity:1" />
    </linearGradient>
  </defs>

  <g transform="translate(286, 386) scale(1)">
      <g transform="translate(0,2100.000000) scale(0.100000,-0.100000)" fill="url(#brand-gradient)" stroke="none">
        <path d="M8145 21164 c-156 -16 -311 -39 -440 -65 -1447 -289 -2623 -1387
-3257 -3044 -160 -418 -264 -791 -393 -1420 -111 -543 -126 -585 -213 -629
-26 -13 -132 -52 -237 -86 -320 -106 -544 -207 -792 -357 -613 -370 -1138
-947 -1486 -1634 -243 -479 -392 -984 -468 -1589 -30 -235 -38 -761 -15 -1020
38 -434 110 -788 240 -1175 161 -477 385 -909 658 -1267 367 -482 773 -822
1263 -1059 253 -122 462 -192 745 -249 180 -36 300 -47 655 -60 183 -6 306
-15 354 -26 180 -38 309 -111 451 -253 115 -115 197 -223 400 -521 170 -251
366 -516 486 -660 109 -131 507 -529 629 -630 276 -228 506 -383 755 -509 462
-234 892 -341 1377 -341 278 0 585 44 845 121 247 73 540 205 751 337 303 190
480 332 812 652 325 313 452 404 634 451 94 25 122 22 451 -37 623 -114 861
-120 1294 -33 389 78 805 273 1120 527 213 172 357 323 586 617 151 195 229
274 349 353 107 70 202 112 333 147 159 42 244 47 496 33 435 -25 632 -15 947
47 1042 206 2009 1048 2545 2215 289 629 442 1262 481 1993 28 511 -42 1140
-182 1637 -220 780 -634 1455 -1199 1954 -379 334 -644 482 -1330 741 -157 59
-324 127 -372 151 -131 66 -249 165 -343 290 -50 66 -92 137 -298 504 -251
448 -621 926 -956 1234 -683 628 -1422 937 -2251 939 -403 1 -728 -65 -1200
-244 -191 -72 -252 -80 -330 -42 -71 35 -110 72 -293 282 -413 472 -748 775
-1152 1046 -207 138 -343 216 -540 311 -386 185 -796 305 -1210 354 -91 11
-626 22 -700 14z m6725 -5379 l0 -895 -2715 0 -2715 0 0 -565 0 -565 2320 0
2320 0 0 -860 0 -860 -2320 0 -2320 0 0 -1740 0 -1740 -1265 0 -1265 0 0 4060
0 4060 3980 0 3980 0 0 -895z m-13382 -6422 c70 -138 367 -543 591 -806 13
-15 13 -17 0 -12 -22 8 -104 102 -292 335 -54 66 -170 227 -203 280 -80 130
-151 268 -128 249 8 -7 23 -28 32 -46z m640 -849 c12 -8 27 -25 33 -37 9 -16
1 -13 -27 13 -21 19 -41 36 -43 38 -2 1 0 2 5 2 5 0 20 -7 32 -16z m687 -534
c39 -26 25 -26 -17 0 -18 11 -28 20 -23 20 6 0 24 -9 40 -20z m191 -105 c18
-13 18 -14 -4 -8 -12 3 -25 9 -28 14 -8 14 10 11 32 -6z m2521 -938 c48 -73
91 -136 96 -142 4 -5 56 -81 116 -167 96 -139 147 -208 355 -478 50 -66 183
-219 201 -232 5 -4 6 -10 3 -14 -9 -8 -77 50 -98 82 -8 13 -18 24 -22 24 -5 0
-8 4 -8 9 0 5 -11 22 -24 37 -142 167 -347 430 -400 514 -16 25 -51 75 -77
111 -27 37 -49 70 -49 74 0 4 -21 37 -47 74 -27 36 -56 81 -66 100 -10 19 -36
57 -56 85 -21 28 -41 60 -45 70 -15 42 33 -16 121 -147z m863 -1134 c0 -6 -13
2 -30 19 -16 16 -30 36 -30 44 0 9 -4 13 -8 10 -5 -3 -9 2 -9 11 0 18 76 -65
77 -84z m95 -92 l20 -25 -26 20 c-15 10 -25 23 -22 27 3 5 6 7 7 5 0 -2 10
-14 21 -27z m1075 -782 c23 -12 39 -23 37 -26 -5 -4 -87 36 -87 43 0 7 9 4 50
-17z"/>
      </g>
  </g>
</svg>